<svg id="Layer_1" data-name="Layer 1" xmlns="http://www.w3.org/2000/svg" xmlns:xlink="http://www.w3.org/1999/xlink" viewBox="0 0 500 500"><defs><style>.cls-1,.cls-6{fill:none;stroke-linejoin:round;}.cls-1{stroke-width:6.4px;stroke:url(#linear-gradient);}.cls-2{fill:url(#linear-gradient-2);}.cls-3{fill:url(#linear-gradient-3);}.cls-4{fill:url(#linear-gradient-4);}.cls-5{fill:url(#linear-gradient-5);}.cls-6{stroke-width:1.75px;stroke:url(#linear-gradient-6);}.cls-7{fill:#009ee3;}.cls-8{fill:#3473ff;}</style><linearGradient id="linear-gradient" x1="156.1" y1="3257.41" x2="320" y2="3257.41" gradientTransform="translate(0 -3017.31)" gradientUnits="userSpaceOnUse"><stop offset="0" stop-color="#563bff"/><stop offset="1" stop-color="#7d8bff"/></linearGradient><linearGradient id="linear-gradient-2" x1="233.41" y1="3276.96" x2="233.8" y2="3314.68" gradientTransform="translate(0 -3017.31)" gradientUnits="userSpaceOnUse"><stop offset="0" stop-color="#45cdd4"/><stop offset="0.13" stop-color="#45c5d4"/><stop offset="0.34" stop-color="#45afd4"/><stop offset="0.6" stop-color="#458ad4"/><stop offset="0.89" stop-color="#4659d3"/><stop offset="1" stop-color="#4644d3"/></linearGradient><linearGradient id="linear-gradient-3" x1="254.22" y1="3258.78" x2="255.1" y2="3344.01" xlink:href="#linear-gradient-2"/><linearGradient id="linear-gradient-4" x1="215.17" y1="3285.58" x2="215.44" y2="3312" xlink:href="#linear-gradient-2"/><linearGradient id="linear-gradient-5" x1="215.3" y1="3378.81" x2="257.13" y2="3378.81" xlink:href="#linear-gradient"/><linearGradient id="linear-gradient-6" x1="143.8" y1="3352.06" x2="338.62" y2="3352.06" xlink:href="#linear-gradient"/></defs><title>mastrtfiras101-logo-new-without-bg</title><g id="OBJECTS"><path class="cls-1" d="M308.4,291.7H167.7a8.47,8.47,0,0,1-8.4-8.5V197a8.41,8.41,0,0,1,8.4-8.5H308.4a8.47,8.47,0,0,1,8.4,8.5v86.2A8.54,8.54,0,0,1,308.4,291.7Z"/><path class="cls-2" d="M238,267.2c0-4.5-2-8.1-4.4-8.1s-4.4,3.6-4.4,8.1v21.2h8.7l.1-21.2Z"/><path class="cls-3" d="M259.9,288.4V248.3c0-4.4-2.4-8.1-5.4-8.1s-5.4,3.6-5.4,8.1v40.1Z"/><path class="cls-4" d="M219.9,273.5c0-3.1-2.1-5.7-4.6-5.7s-4.6,2.5-4.6,5.7v14.8h9.2V273.5Z"/><path class="cls-5" d="M255.6,363.2H216.9a1.58,1.58,0,0,1-1.6-1.6v-.2a1.58,1.58,0,0,1,1.6-1.6h38.7a1.58,1.58,0,0,1,1.6,1.6v.2A1.64,1.64,0,0,1,255.6,363.2Z"/><path class="cls-6" d="M162.2,304.9l-17.3,56.4c-.8,2.8.6,5.8,2.5,5.8H335c2.1,0,3.4-3.4,2.4-6.1l-23.1-56.4c-.5-1.4-1.4-2.2-2.4-2.2H164.7C163.6,302.3,162.6,303.4,162.2,304.9Z"/></g><path class="cls-7" d="M183.2,327.5v-.6c1-.1,1.2-.2,1.2-1.8v-3.5c0-1.6-.5-2.5-1.6-2.5a3.12,3.12,0,0,0-2,1.1c0,.3.1.5.1.9v4.1c0,1.4.2,1.5,1.2,1.6v.6H178v-.6c1.1-.1,1.3-.2,1.3-1.7v-3.6c0-1.6-.5-2.4-1.6-2.4a2.71,2.71,0,0,0-1.9,1.1v5c0,1.4.2,1.5,1,1.7v.6h-4v-.6c1.2-.1,1.4-.3,1.4-1.7v-4.4c0-1.4-.1-1.5-1.1-1.7v-.5a7.8,7.8,0,0,0,2.7-.9v1.8c.4-.3.8-.7,1.4-1.1a2.2,2.2,0,0,1,1.5-.6,2.4,2.4,0,0,1,2.1,1.8,13.06,13.06,0,0,1,1.5-1.2,2.39,2.39,0,0,1,1.4-.5c1.5,0,2.4,1.2,2.4,3.4v4.1c0,1.4.1,1.5,1.2,1.7v.6h-4.1v-.2Z"/><path class="cls-7" d="M196.7,327.7a1.49,1.49,0,0,1-.9-.4,1.8,1.8,0,0,1-.4-.9,5,5,0,0,1-2.1,1.3A2.49,2.49,0,0,1,191,325a2,2,0,0,1,1.5-2.1,9.73,9.73,0,0,0,2.9-1.4v-.4c0-1.5-.6-2.4-1.5-2.4a.91.91,0,0,0-.8.4,5.71,5.71,0,0,0-.6,1.5c-.1.4-.3.5-.6.5a.92.92,0,0,1-.8-1,1.21,1.21,0,0,1,.6-.9,6.78,6.78,0,0,1,2.8-1.5,2.46,2.46,0,0,1,1.5.5,3.56,3.56,0,0,1,.9,2.7v3.9c0,1,.3,1.3.7,1.3a1.85,1.85,0,0,0,.7-.2l.2.6Zm-1.4-5.4c-.4.2-1.1.6-1.5.8a1.71,1.71,0,0,0-1.1,1.6,1.41,1.41,0,0,0,1.3,1.6,2.33,2.33,0,0,0,1.4-.7l-.1-3.3Z"/><path class="cls-7" d="M206.5,320.7c-.4-1.3-1-2.2-1.9-2.2-.7,0-1.1.6-1.1,1.4s.7,1.4,1.5,1.8c1.4.7,2.4,1.4,2.4,3a3,3,0,0,1-3.1,3,3.21,3.21,0,0,1-2.1-.7,14.5,14.5,0,0,1-.3-2.7l.5-.1c.3,1.4,1.2,2.7,2.3,2.7a1.38,1.38,0,0,0,1.3-1.5c0-.9-.5-1.4-1.4-1.9-1.1-.6-2.4-1.3-2.4-3a2.76,2.76,0,0,1,2.9-2.8,3.53,3.53,0,0,1,1.7.4,9.26,9.26,0,0,1,.4,2.3Z"/><path class="cls-7" d="M214.8,327.4a1.6,1.6,0,0,1-.8.3c-1.2,0-1.9-.8-1.9-2.6V319h-1.3l-.1-.3.5-.6h.8v-1.6l1.4-1.5.2.1v3h2.1a.76.76,0,0,1-.1.9h-1.9v5.4c0,1.7.6,2,1.1,2a2.1,2.1,0,0,0,1.1-.4l.2.6Z"/><path class="cls-7" d="M226.2,325.5c-1.2,1.8-2.5,2.2-3.1,2.2-2.3,0-3.6-2.2-3.6-4.6a5.86,5.86,0,0,1,1.2-3.7,3.89,3.89,0,0,1,2.8-1.7h0a3.12,3.12,0,0,1,2.8,3.3c0,.4-.1.6-.4.7a47.73,47.73,0,0,1-4.8.4c0,2.8,1.4,4,2.7,4a2.48,2.48,0,0,0,2.1-1.1Zm-3.2-6.9c-.8,0-1.6.8-1.9,2.6h3c.3,0,.4-.1.4-.4.1-1.1-.5-2.2-1.5-2.2Z"/><path class="cls-7" d="M232.8,320.1c.6-1.2,1.4-2.3,2.2-2.3a1.11,1.11,0,0,1,1.1,1.1,1.43,1.43,0,0,1-.6,1.2c-.2.1-.4.1-.5-.1a1,1,0,0,0-.8-.4c-.5,0-1,.6-1.4,1.8v3.8c0,1.4.1,1.5,1.5,1.7v.6h-4.4v-.6c1.1-.1,1.3-.3,1.3-1.7v-4.5c0-1.4-.1-1.5-1.1-1.6v-.5a9.53,9.53,0,0,0,2.7-.9v2.4Z"/><path class="cls-7" d="M240.8,318.1v-.5a7.18,7.18,0,0,1,.2-1.7,4.57,4.57,0,0,1,1.5-2.5,3.26,3.26,0,0,1,2.1-1.2,1.81,1.81,0,0,1,1.5.7.78.78,0,0,1,.1.8,1,1,0,0,1-.4.5c-.2.2-.4.2-.5,0a2.37,2.37,0,0,0-1.5-.9,1,1,0,0,0-.9.6,8.46,8.46,0,0,0-.4,3.2v.9h2.2c.1.2,0,.8-.2.9h-2V325c0,1.6.1,1.7,1.6,1.8v.6h-4.5v-.6c1.2-.1,1.3-.3,1.3-1.7V319h-1.3l-.1-.3.5-.6Z"/><path class="cls-7" d="M247.7,327.5v-.6c1.2-.1,1.3-.3,1.3-1.8v-4.3c0-1.4-.1-1.5-1.2-1.7v-.5a12.9,12.9,0,0,0,2.8-.8v7.4c0,1.5.1,1.6,1.3,1.8v.6h-4.2v-.1Zm1-12.7a1,1,0,1,1,1,1.2A1.13,1.13,0,0,1,248.7,314.8Z"/><path class="cls-7" d="M258.3,320.1c.6-1.2,1.4-2.3,2.2-2.3a1.11,1.11,0,0,1,1.1,1.1,1.74,1.74,0,0,1-.6,1.2c-.2.1-.4.1-.5-.1a1,1,0,0,0-.8-.4c-.5,0-1,.6-1.4,1.8v3.8c0,1.4.1,1.5,1.5,1.7v.6h-4.4v-.6c1.1-.1,1.3-.3,1.3-1.7v-4.5c0-1.4-.1-1.5-1.1-1.6v-.5a9.53,9.53,0,0,0,2.7-.9v2.4Z"/><path class="cls-7" d="M270.9,327.7a1.49,1.49,0,0,1-.9-.4,1.8,1.8,0,0,1-.4-.9,5,5,0,0,1-2.1,1.3,2.49,2.49,0,0,1-2.3-2.7,2,2,0,0,1,1.5-2.1,9.73,9.73,0,0,0,2.9-1.4v-.4c0-1.5-.6-2.4-1.5-2.4a.91.91,0,0,0-.8.4,5.71,5.71,0,0,0-.6,1.5c-.1.4-.3.5-.6.5a.92.92,0,0,1-.8-1,1.21,1.21,0,0,1,.6-.9,6.78,6.78,0,0,1,2.8-1.5,2.46,2.46,0,0,1,1.5.5,3.56,3.56,0,0,1,.9,2.7v3.9c0,1,.3,1.3.7,1.3a1.85,1.85,0,0,0,.7-.2l.2.6Zm-1.5-5.4c-.4.2-1.1.6-1.5.8a1.71,1.71,0,0,0-1.1,1.6,1.41,1.41,0,0,0,1.3,1.6,2.33,2.33,0,0,0,1.4-.7l-.1-3.3Z"/><path class="cls-7" d="M280.7,320.7c-.4-1.3-1-2.2-1.9-2.2-.7,0-1.1.6-1.1,1.4s.7,1.4,1.5,1.8c1.4.7,2.4,1.4,2.4,3a3,3,0,0,1-3.1,3,3.21,3.21,0,0,1-2.1-.7,14.5,14.5,0,0,1-.3-2.7l.5-.1c.3,1.4,1.2,2.7,2.3,2.7a1.38,1.38,0,0,0,1.3-1.5c0-.9-.5-1.4-1.4-1.9-1.1-.6-2.4-1.3-2.4-3a2.76,2.76,0,0,1,2.9-2.8,3.53,3.53,0,0,1,1.7.4,9.26,9.26,0,0,1,.4,2.3Z"/><path class="cls-7" d="M289.9,327.5h-3c-.4,0-.6,0-.7-.1-.3-.1-.4-.3-.4-.7q0-.9,1.2-.9h.7a7.17,7.17,0,0,0-.1-1.3,7.17,7.17,0,0,1-.1-1.3c0-.8.1-1.9.2-3.5s.2-2.7.2-3.5c-.7.6-1.1.9-1.3.9a.55.55,0,0,1-.5-.3.73.73,0,0,1-.2-.6c0-.3.2-.6.7-1a10,10,0,0,0,1.2-1.1,1.88,1.88,0,0,1,1.3-.8c.3,0,.5.2.5.7v3c0,.7-.1,1.7-.2,3.1s-.2,2.4-.2,3.1a6.64,6.64,0,0,0,.1,1.3c0,.5.1.9.1,1.2h.8a.76.76,0,0,1,.5.2,1.07,1.07,0,0,1,.2.6.85.85,0,0,1-.2.6A1.51,1.51,0,0,1,289.9,327.5Z"/><path class="cls-7" d="M297.8,327.8a3.56,3.56,0,0,1-3.4-2.5,14.14,14.14,0,0,1-.8-5,8.71,8.71,0,0,1,1.1-4.6,3.84,3.84,0,0,1,3.4-2.3,3.46,3.46,0,0,1,3.1,2,9.41,9.41,0,0,1,1,4.3,13.83,13.83,0,0,1-1.1,6.1A3.54,3.54,0,0,1,297.8,327.8Zm.3-12.6a2.5,2.5,0,0,0-2.2,1.7,6.71,6.71,0,0,0-.7,3.3,10.56,10.56,0,0,0,.7,4.5,2.19,2.19,0,0,0,2,1.5c1.1,0,1.8-.7,2.3-2.2a13.46,13.46,0,0,0,.5-3.8,9.19,9.19,0,0,0-.6-3.7A2.23,2.23,0,0,0,298.1,315.2Z"/><path class="cls-7" d="M309.6,327.5h-3c-.4,0-.6,0-.7-.1-.3-.1-.4-.3-.4-.7q0-.9,1.2-.9h.7a7.17,7.17,0,0,0-.1-1.3,7.17,7.17,0,0,1-.1-1.3c0-.8.1-1.9.2-3.5s.2-2.7.2-3.5c-.7.6-1.1.9-1.3.9a.55.55,0,0,1-.5-.3.73.73,0,0,1-.2-.6c0-.3.2-.6.7-1a10,10,0,0,0,1.2-1.1,1.88,1.88,0,0,1,1.3-.8c.3,0,.5.2.5.7v3c0,.7-.1,1.7-.2,3.1s-.2,2.4-.2,3.1a6.64,6.64,0,0,0,.1,1.3c0,.5.1.9.1,1.2h.8a.76.76,0,0,1,.5.2,1.07,1.07,0,0,1,.2.6.85.85,0,0,1-.2.6A2,2,0,0,1,309.6,327.5Z"/><path class="cls-8" d="M195.7,341.2c-.2-.8-.6-1.8-1.7-1.8a1.39,1.39,0,0,0-1.5,1.4c0,.9.6,1.3,1.7,1.9s2.3,1.2,2.3,2.6-1.2,2.5-3,2.5a4.44,4.44,0,0,1-1.3-.2,4.88,4.88,0,0,1-.7-.3c-.1-.3-.3-1.4-.4-2l.4-.1c.2.8.9,2.2,2.2,2.2a1.37,1.37,0,0,0,1.5-1.5c0-.9-.7-1.4-1.7-1.9s-2.2-1.1-2.2-2.5,1-2.3,2.8-2.3a4.67,4.67,0,0,1,1.7.3c.1.5.1,1,.2,1.8Z"/><path class="cls-8" d="M200.4,341.8a2.82,2.82,0,0,1,2.9,2.8,2.94,2.94,0,0,1-2.9,3.1,2.84,2.84,0,0,1-3-2.8,3,3,0,0,1,3-3.1Zm-.2.5c-.8,0-1.5.8-1.5,2.2,0,1.6.7,2.8,1.8,2.8.8,0,1.4-.5,1.4-2.3,0-1.6-.6-2.7-1.7-2.7Z"/><path class="cls-8" d="M210.5,347.6a1.42,1.42,0,0,1-.6.2c-.9,0-1.4-.5-1.4-1.5v-3.7h-2.4v3.7c0,.8.1.9.9,1v.4h-3v-.4c.8-.1.9-.2.9-1v-3.7H204l-.1-.1.4-.4h.6v-.3c0-.4.1-.7.1-1a3.13,3.13,0,0,1,1-1.5,3.4,3.4,0,0,1,1.5-.7,1.33,1.33,0,0,1,1,.4c.1.2.2.3.1.5l-.3.3a.19.19,0,0,1-.3,0,1.39,1.39,0,0,0-1-.5.75.75,0,0,0-.7.4,4,4,0,0,0-.3,2.1v.4h2.4v-.9l1-.9.2.1v1.7h1.5a.35.35,0,0,1-.1.5h-1.4v3.2c0,1,.4,1.2.8,1.2a1.88,1.88,0,0,0,.8-.2l.1.4Z"/><path class="cls-8" d="M220.7,342.3c-.7.1-.8.3-1,.9-.4,1-1,2.7-1.6,4.5h-.4c-.5-1.4-1.1-2.6-1.6-3.9-.5,1.3-1,2.5-1.5,3.9h-.4c-.5-1.5-1-3-1.5-4.6-.2-.7-.3-.8-1-.8V342h2.8v.3c-.8.1-.8.2-.7.8.3.9.6,1.9.9,2.9h0q.75-1.8,1.5-3.9h.4c.5,1.3,1,2.6,1.6,4h0c.3-.8.6-2,.9-2.9.2-.6.1-.7-.8-.8V342h2.4v.3Z"/><path class="cls-8" d="M225.1,347.7a1.08,1.08,0,0,1-.7-.3c-.2-.2-.3-.3-.3-.5-.5.3-1.1.8-1.5.8a1.58,1.58,0,0,1-1.6-1.6c0-.6.4-1,1.1-1.3a16.17,16.17,0,0,0,2-.8v-.2c0-.9-.4-1.4-1-1.4a1.42,1.42,0,0,0-.6.2,1.88,1.88,0,0,0-.4.9c-.1.2-.2.3-.4.3a.65.65,0,0,1-.6-.6.66.66,0,0,1,.4-.5,5.28,5.28,0,0,1,2-.9,2,2,0,0,1,1.1.3,1.8,1.8,0,0,1,.6,1.6V346c0,.6.2.8.5.8a4.33,4.33,0,0,1,.5-.1l.1.3Zm-1-3.2c-.3.1-.8.4-1.1.5-.5.2-.8.5-.8.9a.92.92,0,0,0,.9,1,2.11,2.11,0,0,0,1-.4v-2Z"/><path class="cls-8" d="M228.8,343.2c.4-.7,1-1.4,1.6-1.4a.71.71,0,0,1,.8.7.75.75,0,0,1-.5.7c-.2.1-.3,0-.4,0a.86.86,0,0,0-.6-.3c-.3,0-.7.4-1,1.1v2.3c0,.8.1.9,1.1,1v.3h-3.1v-.3c.8-.1.9-.2.9-1v-2.7c0-.8-.1-.9-.8-1v-.3a10.55,10.55,0,0,0,1.9-.5l.1,1.4Z"/><path class="cls-8" d="M236.5,346.4a2.88,2.88,0,0,1-2.2,1.3,2.6,2.6,0,0,1-2.6-2.7,3.29,3.29,0,0,1,.8-2.2,3,3,0,0,1,2-1h0a2.07,2.07,0,0,1,2,2c0,.2-.1.4-.3.4s-1.9.2-3.4.2c0,1.7,1,2.4,1.9,2.4a2.4,2.4,0,0,0,1.5-.6Zm-2.3-4.1c-.6,0-1.1.5-1.3,1.6H235c.2,0,.3-.1.3-.2,0-.8-.4-1.4-1.1-1.4Z"/><path class="cls-8" d="M247.7,345.5a12.91,12.91,0,0,1-.5,2.1h-6.5v-.4c1.2-.1,1.3-.2,1.3-1.3v-5c0-1.2-.1-1.2-1.1-1.3v-.4h6c0,.3.1,1.2.1,1.9l-.4.1a6.6,6.6,0,0,0-.4-1.1c-.2-.3-.6-.4-1.5-.4h-1c-.4,0-.5,0-.5.4V343h1.2c1.2,0,1.3-.1,1.4-1h.4v2.5h-.4c-.2-.9-.3-1-1.4-1h-1.2v2.4a1.44,1.44,0,0,0,.3,1.1,4.51,4.51,0,0,0,1.3.1c1,0,1.4-.1,1.7-.4a6.35,6.35,0,0,0,.7-1.2Z"/><path class="cls-8" d="M252.1,347.6v-.3c.7-.1.8-.2.8-1.1v-2.1c0-.9-.4-1.4-1.2-1.4a2.51,2.51,0,0,0-1.4.6v3c0,.9.1.9.8,1v.3h-2.9v-.3c.9-.1.9-.2.9-1v-2.6c0-.8-.1-.9-.8-1v-.3a13.32,13.32,0,0,0,1.9-.5v1a7,7,0,0,1,.9-.6,2.46,2.46,0,0,1,1.1-.4c1,0,1.7.7,1.7,2v2.4c0,.9.1.9.8,1v.3Z"/><path class="cls-8" d="M261.4,342.1a3.74,3.74,0,0,1-.6.7h-.7a2.1,2.1,0,0,1,.4,1.1,2.07,2.07,0,0,1-2.3,2,1.7,1.7,0,0,1-.7-.1.55.55,0,0,0-.3.5c0,.2.2.5.8.5h1.4c.8,0,1.9.2,1.9,1.5s-1.6,2.6-3.3,2.6c-1.5,0-2.3-.8-2.3-1.6a.78.78,0,0,1,.3-.7,10.63,10.63,0,0,1,1.1-.9,1.53,1.53,0,0,1-1-.7.66.66,0,0,1-.1-.6,2.8,2.8,0,0,0,1.2-.8,2,2,0,0,1-1.2-1.7,2.17,2.17,0,0,1,2.4-2.1h0a3.08,3.08,0,0,1,1.3.3,9,9,0,0,0,1.8-.2Zm-3.1,5.7a1.44,1.44,0,0,0-1.1.3c-.3.3-.6.6-.6.9,0,.7.7,1.2,1.7,1.2,1.2,0,1.8-.6,1.8-1.4a.87.87,0,0,0-.6-.9,3.78,3.78,0,0,0-1.2-.1Zm-.2-5.6c-.5,0-1,.5-1,1.5s.5,1.7,1.2,1.7,1-.5,1-1.5-.5-1.7-1.2-1.7Z"/><path class="cls-8" d="M261.8,347.6v-.3c.8-.1.9-.2.9-1.1v-2.6c0-.8,0-.9-.8-1v-.3a11.7,11.7,0,0,0,2-.5v4.4c0,.9.1,1,.9,1.1v.3Zm.7-7.6a.7.7,0,1,1,.7.7A.68.68,0,0,1,262.5,340Z"/><path class="cls-8" d="M269.1,347.6v-.3c.7-.1.8-.2.8-1.1v-2.1c0-.9-.4-1.4-1.2-1.4a2.51,2.51,0,0,0-1.4.6v3c0,.9.1.9.8,1v.3h-2.9v-.3c.9-.1.9-.2.9-1v-2.6c0-.8-.1-.9-.8-1v-.3a13.32,13.32,0,0,0,1.9-.5v1a7,7,0,0,1,.9-.6,2.46,2.46,0,0,1,1.1-.4c1,0,1.7.7,1.7,2v2.4c0,.9.1.9.8,1v.3Z"/><path class="cls-8" d="M277.4,346.4a2.88,2.88,0,0,1-2.2,1.3,2.6,2.6,0,0,1-2.6-2.7,3.29,3.29,0,0,1,.8-2.2,3,3,0,0,1,2-1h0a2.07,2.07,0,0,1,2,2c0,.2-.1.4-.3.4s-1.9.2-3.4.2c0,1.7,1,2.4,1.9,2.4a2.4,2.4,0,0,0,1.5-.6Zm-2.2-4.1c-.6,0-1.1.5-1.3,1.6H276c.2,0,.3-.1.3-.2,0-.8-.4-1.4-1.1-1.4Z"/><path class="cls-8" d="M283,346.4a2.88,2.88,0,0,1-2.2,1.3,2.6,2.6,0,0,1-2.6-2.7,3.29,3.29,0,0,1,.8-2.2,3,3,0,0,1,2-1h0a2.07,2.07,0,0,1,2,2c0,.2-.1.4-.3.4s-1.9.2-3.4.2c0,1.7,1,2.4,1.9,2.4a2.4,2.4,0,0,0,1.5-.6Zm-2.2-4.1c-.6,0-1.1.5-1.3,1.6h2.1c.2,0,.3-.1.3-.2,0-.8-.4-1.4-1.1-1.4Z"/><path class="cls-8" d="M285.9,343.2c.4-.7,1-1.4,1.6-1.4a.71.71,0,0,1,.8.7.75.75,0,0,1-.5.7c-.2.1-.3,0-.4,0a.86.86,0,0,0-.6-.3c-.3,0-.7.4-1,1.1v2.3c0,.8.1.9,1.1,1v.3h-3.1v-.3c.8-.1.9-.2.9-1v-2.7c0-.8-.1-.9-.8-1v-.3a10.55,10.55,0,0,0,1.9-.5l.1,1.4Z"/></svg>