<svg xmlns="http://www.w3.org/2000/svg" xmlns:xlink="http://www.w3.org/1999/xlink" viewBox="0 0 194.82 182.67"><defs><style>.cls-1,.cls-6,.cls-7{fill:none;}.cls-1,.cls-6{stroke-linejoin:round;}.cls-1{stroke-width:6.4px;stroke:url(#linear-gradient);}.cls-2{fill:url(#linear-gradient-2);}.cls-3{fill:url(#linear-gradient-3);}.cls-4{fill:url(#linear-gradient-4);}.cls-5{fill:url(#linear-gradient-5);}.cls-6{stroke-width:1.75px;stroke:url(#linear-gradient-6);}.cls-7{stroke:#79b829;stroke-miterlimit:10;stroke-opacity:0;}.cls-8{fill:#009ee3;}.cls-9{fill:#00b3ec;}</style><linearGradient id="linear-gradient" x1="12.3" y1="632.8" x2="176.2" y2="632.8" gradientTransform="translate(0 -578)" gradientUnits="userSpaceOnUse"><stop offset="0" stop-color="#563bff"/><stop offset="1" stop-color="#7d8bff"/></linearGradient><linearGradient id="linear-gradient-2" x1="89.62" y1="652.35" x2="90.01" y2="690.07" gradientTransform="translate(0 -578)" gradientUnits="userSpaceOnUse"><stop offset="0" stop-color="#45cdd4"/><stop offset="0.13" stop-color="#45c5d4"/><stop offset="0.34" stop-color="#45afd4"/><stop offset="0.6" stop-color="#458ad4"/><stop offset="0.89" stop-color="#4659d3"/><stop offset="1" stop-color="#4644d3"/></linearGradient><linearGradient id="linear-gradient-3" x1="110.43" y1="634.17" x2="111.31" y2="719.4" xlink:href="#linear-gradient-2"/><linearGradient id="linear-gradient-4" x1="71.37" y1="660.97" x2="71.65" y2="687.39" xlink:href="#linear-gradient-2"/><linearGradient id="linear-gradient-5" x1="71.5" y1="754.2" x2="113.33" y2="754.2" xlink:href="#linear-gradient"/><linearGradient id="linear-gradient-6" x1="0" y1="727.45" x2="194.82" y2="727.45" xlink:href="#linear-gradient"/></defs><title>Asset 1</title><g id="Layer_2" data-name="Layer 2"><g id="Layer_1-2" data-name="Layer 1"><g id="OBJECTS"><path class="cls-1" d="M164.6,106.4H23.9a8.47,8.47,0,0,1-8.4-8.5V11.7a8.41,8.41,0,0,1,8.4-8.5H164.6a8.47,8.47,0,0,1,8.4,8.5V97.9A8.54,8.54,0,0,1,164.6,106.4Z"/><path class="cls-2" d="M94.2,81.9c0-4.5-2-8.1-4.4-8.1s-4.4,3.6-4.4,8.1v21.2h8.7V81.9Z"/><path class="cls-3" d="M116.1,103.1V63c0-4.4-2.4-8.1-5.4-8.1s-5.4,3.6-5.4,8.1v40.1Z"/><path class="cls-4" d="M76.1,88.2c0-3.1-2.1-5.7-4.6-5.7s-4.6,2.5-4.6,5.7V103h9.2V88.2Z"/><path class="cls-5" d="M111.8,177.9H73.1a1.58,1.58,0,0,1-1.6-1.6v-.2a1.58,1.58,0,0,1,1.6-1.6h38.7a1.58,1.58,0,0,1,1.6,1.6v.2A1.64,1.64,0,0,1,111.8,177.9Z"/><path class="cls-6" d="M18.4,119.6,1.1,176c-.8,2.8.6,5.8,2.5,5.8H191.2c2.1,0,3.4-3.4,2.4-6.1l-23.1-56.4c-.5-1.4-1.4-2.2-2.4-2.2H20.9C19.8,117,18.8,118.1,18.4,119.6Z"/></g><rect class="cls-7" x="15.5" y="117" width="157.4" height="21.7"/><path class="cls-8" d="M39.4,142.2v-.6c1-.1,1.2-.2,1.2-1.8v-3.5c0-1.6-.5-2.5-1.6-2.5a3.12,3.12,0,0,0-2,1.1c0,.3.1.5.1.9v4.1c0,1.4.2,1.5,1.2,1.6v.6H34.2v-.6c1.1-.1,1.3-.2,1.3-1.7v-3.6c0-1.6-.5-2.4-1.6-2.4a2.71,2.71,0,0,0-1.9,1.1v5c0,1.4.2,1.5,1,1.7v.6H29v-.6c1.2-.1,1.4-.3,1.4-1.7v-4.4c0-1.4-.1-1.5-1.1-1.7v-.5a7.8,7.8,0,0,0,2.7-.9v1.8c.4-.3.8-.7,1.4-1.1a2.2,2.2,0,0,1,1.5-.6,2.4,2.4,0,0,1,2.1,1.8,13.06,13.06,0,0,1,1.5-1.2,2.39,2.39,0,0,1,1.4-.5c1.5,0,2.4,1.2,2.4,3.4v4.1c0,1.4.1,1.5,1.2,1.7v.6H39.4Z"/><path class="cls-8" d="M52.9,142.4a1.49,1.49,0,0,1-.9-.4,1.8,1.8,0,0,1-.4-.9,5,5,0,0,1-2.1,1.3,2.49,2.49,0,0,1-2.3-2.7,2,2,0,0,1,1.5-2.1,9.73,9.73,0,0,0,2.9-1.4v-.4c0-1.5-.6-2.4-1.5-2.4a.91.91,0,0,0-.8.4,5.71,5.71,0,0,0-.6,1.5c-.1.4-.3.5-.6.5a.92.92,0,0,1-.8-1,1.21,1.21,0,0,1,.6-.9,6.78,6.78,0,0,1,2.8-1.5,2.46,2.46,0,0,1,1.5.5,3.56,3.56,0,0,1,.9,2.7v3.9c0,1,.3,1.3.7,1.3a1.85,1.85,0,0,0,.7-.2l.2.6ZM51.5,137c-.4.2-1.1.6-1.5.8a1.71,1.71,0,0,0-1.1,1.6,1.41,1.41,0,0,0,1.3,1.6,2.33,2.33,0,0,0,1.4-.7V137Z"/><path class="cls-8" d="M62.7,135.4c-.4-1.3-1-2.2-1.9-2.2-.7,0-1.1.6-1.1,1.4s.7,1.4,1.5,1.8c1.4.7,2.4,1.4,2.4,3a3,3,0,0,1-3.1,3,3.21,3.21,0,0,1-2.1-.7,14.5,14.5,0,0,1-.3-2.7l.5-.1c.3,1.4,1.2,2.7,2.3,2.7a1.38,1.38,0,0,0,1.3-1.5c0-.9-.5-1.4-1.4-1.9-1.1-.6-2.4-1.3-2.4-3a2.76,2.76,0,0,1,2.9-2.8,3.53,3.53,0,0,1,1.7.4,9.26,9.26,0,0,1,.4,2.3Z"/><path class="cls-8" d="M71,142.1a1.6,1.6,0,0,1-.8.3c-1.2,0-1.9-.8-1.9-2.6v-6.1H67l-.1-.3.5-.6h.8v-1.6l1.4-1.5.2.1v3h2.1a.76.76,0,0,1-.1.9H69.9v5.4c0,1.7.6,2,1.1,2a2.1,2.1,0,0,0,1.1-.4l.2.6Z"/><path class="cls-8" d="M82.4,140.2c-1.2,1.8-2.5,2.2-3.1,2.2-2.3,0-3.6-2.2-3.6-4.6a5.86,5.86,0,0,1,1.2-3.7,3.89,3.89,0,0,1,2.8-1.7h0a3.12,3.12,0,0,1,2.8,3.3c0,.4-.1.6-.4.7a47.73,47.73,0,0,1-4.8.4c0,2.8,1.4,4,2.7,4a2.48,2.48,0,0,0,2.1-1.1Zm-3.2-6.9c-.8,0-1.6.8-1.9,2.6h3c.3,0,.4-.1.4-.4.1-1.1-.5-2.2-1.5-2.2Z"/><path class="cls-8" d="M89,134.8c.6-1.2,1.4-2.3,2.2-2.3a1.11,1.11,0,0,1,1.1,1.1,1.43,1.43,0,0,1-.6,1.2c-.2.1-.4.1-.5-.1a1,1,0,0,0-.8-.4c-.5,0-1,.6-1.4,1.8v3.8c0,1.4.1,1.5,1.5,1.7v.6H86.1v-.6c1.1-.1,1.3-.3,1.3-1.7v-4.5c0-1.4-.1-1.5-1.1-1.6v-.5a9.53,9.53,0,0,0,2.7-.9v2.4Z"/><path class="cls-8" d="M97,132.8v-.5a7.18,7.18,0,0,1,.2-1.7,4.57,4.57,0,0,1,1.5-2.5,3.26,3.26,0,0,1,2.1-1.2,1.81,1.81,0,0,1,1.5.7.78.78,0,0,1,.1.8,1,1,0,0,1-.4.5c-.2.2-.4.2-.5,0a2.37,2.37,0,0,0-1.5-.9,1,1,0,0,0-.9.6,8.46,8.46,0,0,0-.4,3.2v.9h2.2c.1.2,0,.8-.2.9h-2v6.1c0,1.6.1,1.7,1.6,1.8v.6H95.8v-.6c1.2-.1,1.3-.3,1.3-1.7v-6.1H95.8l-.1-.3.5-.6Z"/><path class="cls-8" d="M103.9,142.2v-.6c1.2-.1,1.3-.3,1.3-1.8v-4.3c0-1.4-.1-1.5-1.2-1.7v-.5a12.9,12.9,0,0,0,2.8-.8v7.4c0,1.5.1,1.6,1.3,1.8v.6h-4.2Zm1-12.7a1,1,0,1,1,1,1.2A1.13,1.13,0,0,1,104.9,129.5Z"/><path class="cls-8" d="M114.5,134.8c.6-1.2,1.4-2.3,2.2-2.3a1.11,1.11,0,0,1,1.1,1.1,1.74,1.74,0,0,1-.6,1.2c-.2.1-.4.1-.5-.1a1,1,0,0,0-.8-.4c-.5,0-1,.6-1.4,1.8v3.8c0,1.4.1,1.5,1.5,1.7v.6h-4.4v-.6c1.1-.1,1.3-.3,1.3-1.7v-4.5c0-1.4-.1-1.5-1.1-1.6v-.5a9.53,9.53,0,0,0,2.7-.9v2.4Z"/><path class="cls-8" d="M127.1,142.4a1.49,1.49,0,0,1-.9-.4,1.8,1.8,0,0,1-.4-.9,5,5,0,0,1-2.1,1.3,2.49,2.49,0,0,1-2.3-2.7,2,2,0,0,1,1.5-2.1,9.73,9.73,0,0,0,2.9-1.4v-.4c0-1.5-.6-2.4-1.5-2.4a.91.91,0,0,0-.8.4,5.71,5.71,0,0,0-.6,1.5c-.1.4-.3.5-.6.5a.92.92,0,0,1-.8-1,1.21,1.21,0,0,1,.6-.9,6.78,6.78,0,0,1,2.8-1.5,2.46,2.46,0,0,1,1.5.5,3.56,3.56,0,0,1,.9,2.7v3.9c0,1,.3,1.3.7,1.3a1.85,1.85,0,0,0,.7-.2l.2.6Zm-1.5-5.4c-.4.2-1.1.6-1.5.8a1.71,1.71,0,0,0-1.1,1.6,1.41,1.41,0,0,0,1.3,1.6,2.33,2.33,0,0,0,1.4-.7V137Z"/><path class="cls-8" d="M136.9,135.4c-.4-1.3-1-2.2-1.9-2.2-.7,0-1.1.6-1.1,1.4s.7,1.4,1.5,1.8c1.4.7,2.4,1.4,2.4,3a3,3,0,0,1-3.1,3,3.21,3.21,0,0,1-2.1-.7,14.5,14.5,0,0,1-.3-2.7l.5-.1c.3,1.4,1.2,2.7,2.3,2.7a1.38,1.38,0,0,0,1.3-1.5c0-.9-.5-1.4-1.4-1.9-1.1-.6-2.4-1.3-2.4-3a2.76,2.76,0,0,1,2.9-2.8,3.53,3.53,0,0,1,1.7.4,9.26,9.26,0,0,1,.4,2.3Z"/><path class="cls-8" d="M146.1,142.2h-3c-.4,0-.6,0-.7-.1-.3-.1-.4-.3-.4-.7q0-.9,1.2-.9h.7a7.17,7.17,0,0,0-.1-1.3,7.17,7.17,0,0,1-.1-1.3c0-.8.1-1.9.2-3.5s.2-2.7.2-3.5c-.7.6-1.1.9-1.3.9a.55.55,0,0,1-.5-.3.73.73,0,0,1-.2-.6c0-.3.2-.6.7-1a10,10,0,0,0,1.2-1.1,1.88,1.88,0,0,1,1.3-.8c.3,0,.5.2.5.7v3c0,.7-.1,1.7-.2,3.1s-.2,2.4-.2,3.1a6.64,6.64,0,0,0,.1,1.3c0,.5.1.9.1,1.2h.8a.76.76,0,0,1,.5.2,1.07,1.07,0,0,1,.2.6.85.85,0,0,1-.2.6A1.51,1.51,0,0,1,146.1,142.2Z"/><path class="cls-8" d="M154,142.5a3.56,3.56,0,0,1-3.4-2.5,14.14,14.14,0,0,1-.8-5,8.71,8.71,0,0,1,1.1-4.6,3.84,3.84,0,0,1,3.4-2.3,3.46,3.46,0,0,1,3.1,2,9.41,9.41,0,0,1,1,4.3,13.83,13.83,0,0,1-1.1,6.1A3.54,3.54,0,0,1,154,142.5Zm.3-12.6a2.5,2.5,0,0,0-2.2,1.7,6.71,6.71,0,0,0-.7,3.3,10.56,10.56,0,0,0,.7,4.5,2.19,2.19,0,0,0,2,1.5c1.1,0,1.8-.7,2.3-2.2a13.46,13.46,0,0,0,.5-3.8,9.19,9.19,0,0,0-.6-3.7A2.23,2.23,0,0,0,154.3,129.9Z"/><path class="cls-8" d="M165.8,142.2h-3c-.4,0-.6,0-.7-.1-.3-.1-.4-.3-.4-.7q0-.9,1.2-.9h.7a7.17,7.17,0,0,0-.1-1.3,7.17,7.17,0,0,1-.1-1.3c0-.8.1-1.9.2-3.5s.2-2.7.2-3.5c-.7.6-1.1.9-1.3.9a.55.55,0,0,1-.5-.3.73.73,0,0,1-.2-.6c0-.3.2-.6.7-1a10,10,0,0,0,1.2-1.1,1.88,1.88,0,0,1,1.3-.8c.3,0,.5.2.5.7v3c0,.7-.1,1.7-.2,3.1s-.2,2.4-.2,3.1a6.64,6.64,0,0,0,.1,1.3c0,.5.1.9.1,1.2h.8a.76.76,0,0,1,.5.2,1.07,1.07,0,0,1,.2.6.85.85,0,0,1-.2.6A2,2,0,0,1,165.8,142.2Z"/><path class="cls-9" d="M37.1,158.9v-7h4.2v.8H37.9v2.2h2.9v.8H37.9v3.2Z"/><path class="cls-9" d="M46.1,158.9v-.7a1.62,1.62,0,0,1-1.4.9,1.45,1.45,0,0,1-.7-.2,2.18,2.18,0,0,1-.5-.4,1.07,1.07,0,0,1-.2-.6V154h.8v3.7a.85.85,0,0,0,.3.5,1,1,0,0,0,1.2,0,1,1,0,0,0,.4-.5,2.79,2.79,0,0,0,.1-1V154h.8v5.1h-.8Z"/><path class="cls-9" d="M48.8,158.9v-7h.8v7Z"/><path class="cls-9" d="M51.6,158.9v-7h.8v7Z"/><path class="cls-9" d="M54.2,156.8v-.9h2.4v.9Z"/><path class="cls-9" d="M58.1,156.6l.8-.1a1.4,1.4,0,0,0,.3.9,1,1,0,0,0,.6.5,3,3,0,0,0,1,.2,1.88,1.88,0,0,0,.8-.2,2.18,2.18,0,0,0,.5-.4,1,1,0,0,0,0-1.2.92.92,0,0,0-.6-.4,3.87,3.87,0,0,0-1.1-.3c-.6-.2-1-.3-1.2-.4a2.34,2.34,0,0,1-.7-.7,2.92,2.92,0,0,1-.2-.9,1.69,1.69,0,0,1,.3-1,1.85,1.85,0,0,1,.8-.7,2,2,0,0,1,1.1-.2,2.13,2.13,0,0,1,1.2.3,1.85,1.85,0,0,1,.8.7,2,2,0,0,1,.3,1.1l-.8.1a1.53,1.53,0,0,0-.4-1,2.17,2.17,0,0,0-2.2,0,1.08,1.08,0,0,0-.3.7.85.85,0,0,0,.2.6,3.53,3.53,0,0,0,1.2.5c.7.2,1.1.3,1.4.4a1.85,1.85,0,0,1,.8.7,1.69,1.69,0,0,1,.3,1,2.28,2.28,0,0,1-.3,1.1,3,3,0,0,1-.8.8,2.38,2.38,0,0,1-1.2.3,2.9,2.9,0,0,1-1.4-.3,2.36,2.36,0,0,1-.9-.8A2.77,2.77,0,0,1,58.1,156.6Z"/><path class="cls-9" d="M66.6,158.1l.1.8a1.27,1.27,0,0,1-.6.1c-.3,0-.5,0-.6-.1s-.3-.2-.3-.4a2.51,2.51,0,0,1-.1-1v-2.9h-.6v-.7h.6v-1.3l.8-.5v1.8h.8v.7h-.8v3.5c0,.1.1.1.1.2s.1.1.3.1Q66.45,158.1,66.6,158.1Z"/><path class="cls-9" d="M71.2,158.3a3.28,3.28,0,0,1-.8.6,1.88,1.88,0,0,1-.8.2,1.25,1.25,0,0,1-1.1-.4,1.78,1.78,0,0,1-.4-1,1.85,1.85,0,0,1,.2-.7,1,1,0,0,1,.4-.5,3.33,3.33,0,0,1,.6-.3c.2,0,.4-.1.7-.1a10.63,10.63,0,0,0,1.4-.3v-.2a1,1,0,0,0-.2-.7,1.22,1.22,0,0,0-.9-.3,1.55,1.55,0,0,0-.8.2c-.2.1-.3.4-.4.8l-.7-.1a4.65,4.65,0,0,1,.3-.9,1.79,1.79,0,0,1,.7-.5,3,3,0,0,1,1-.2,2,2,0,0,1,.9.2,1,1,0,0,1,.5.4,1.07,1.07,0,0,1,.2.6v3.4a1.42,1.42,0,0,0,.2.6h-.8A4.5,4.5,0,0,1,71.2,158.3Zm-.1-2a8.57,8.57,0,0,1-1.3.3,6.37,6.37,0,0,0-.7.2c-.2.1-.2.2-.3.3a.6.6,0,0,0-.1.4,1.42,1.42,0,0,0,.2.6.84.84,0,0,0,.7.2,1.88,1.88,0,0,0,.8-.2,1,1,0,0,0,.5-.6,2.22,2.22,0,0,0,.1-.9v-.3Z"/><path class="cls-9" d="M76.9,157l.8.1a3,3,0,0,1-.6,1.4,1.85,1.85,0,0,1-1.2.5,1.8,1.8,0,0,1-1.5-.7,3,3,0,0,1-.6-2,5.9,5.9,0,0,1,.2-1.4,1.6,1.6,0,0,1,.7-.9,2,2,0,0,1,1.1-.3,1.59,1.59,0,0,1,1.2.4,2.28,2.28,0,0,1,.6,1.2l-.7.1a2,2,0,0,0-.4-.8.91.91,0,0,0-.7-.3,1.05,1.05,0,0,0-.9.5,2.7,2.7,0,0,0-.4,1.5,2.81,2.81,0,0,0,.3,1.5,1.05,1.05,0,0,0,.9.5,1.14,1.14,0,0,0,.8-.3A1.33,1.33,0,0,0,76.9,157Z"/><path class="cls-9" d="M79.2,158.9v-7H80v4l1.8-2.1h1l-1.7,1.9,1.9,3.2h-.9l-1.5-2.6-.5.6v2Z"/><path class="cls-9" d="M88.9,158.9l-1.7-7H88l.9,4.6c.1.5.2,1,.3,1.4a8.67,8.67,0,0,0,.3-1.3l1.2-4.7h1l.9,3.5c.2.9.4,1.7.5,2.5.1-.4.2-1,.3-1.5l1-4.5h.8l-1.7,7h-.8l-1.3-5.3c-.1-.4-.2-.7-.2-.8-.1.3-.1.6-.2.8l-1.3,5.3Z"/><path class="cls-9" d="M99.9,157.3l.8.1a2.4,2.4,0,0,1-.7,1.2,1.84,1.84,0,0,1-1.3.4,1.86,1.86,0,0,1-1.6-.7,2.88,2.88,0,0,1-.6-1.9,3,3,0,0,1,.6-2,2,2,0,0,1,3,0,3,3,0,0,1,.6,2v.2H97.3a2.23,2.23,0,0,0,.4,1.3,1.22,1.22,0,0,0,.9.4,1.45,1.45,0,0,0,.7-.2A1.16,1.16,0,0,0,99.9,157.3Zm-2.5-1.4h2.5a1.69,1.69,0,0,0-.3-1,1.19,1.19,0,0,0-.9-.5,1.09,1.09,0,0,0-.9.4A1.82,1.82,0,0,0,97.4,155.9Z"/><path class="cls-9" d="M103.3,158.9h-.7v-7h.8v2.5a1.31,1.31,0,0,1,1.2-.7,2.35,2.35,0,0,1,.8.2,1,1,0,0,1,.6.5,2,2,0,0,1,.4.8,3.4,3.4,0,0,1,.1,1,3,3,0,0,1-.6,2,1.62,1.62,0,0,1-1.4.7,1.56,1.56,0,0,1-1.3-.8v.8Zm0-2.6a3.92,3.92,0,0,0,.2,1.3,1.2,1.2,0,0,0,1,.7,1.38,1.38,0,0,0,.9-.5,2.7,2.7,0,0,0,.4-1.5,2.08,2.08,0,0,0-.4-1.5,1,1,0,0,0-.8-.5,1.38,1.38,0,0,0-.9.5A2.41,2.41,0,0,0,103.3,156.3Z"/><path class="cls-9" d="M111.7,158.9v-7h2.1a3.11,3.11,0,0,1,1.1.1,1.93,1.93,0,0,1,.9.5,2.4,2.4,0,0,1,.7,1.2,4.42,4.42,0,0,1,.2,1.7,5.9,5.9,0,0,1-.2,1.4,5.13,5.13,0,0,1-.4,1,1.7,1.7,0,0,1-.6.6,2.51,2.51,0,0,1-.7.4,3.08,3.08,0,0,1-1,.1Zm.8-.8h1.3a3.08,3.08,0,0,0,1-.1,2.09,2.09,0,0,0,.6-.4,3.6,3.6,0,0,0,.5-.9,5.21,5.21,0,0,0,.2-1.4,4,4,0,0,0-.3-1.7,1.55,1.55,0,0,0-.8-.8,3.11,3.11,0,0,0-1.1-.1h-1.3v5.4Z"/><path class="cls-9" d="M121.8,157.3l.8.1a2.4,2.4,0,0,1-.7,1.2,1.84,1.84,0,0,1-1.3.4,1.86,1.86,0,0,1-1.6-.7,2.88,2.88,0,0,1-.6-1.9,3,3,0,0,1,.6-2,2,2,0,0,1,3,0,3,3,0,0,1,.6,2v.2h-3.4a2.23,2.23,0,0,0,.4,1.3,1.22,1.22,0,0,0,.9.4,1.45,1.45,0,0,0,.7-.2A1.16,1.16,0,0,0,121.8,157.3Zm-2.5-1.4h2.5a1.69,1.69,0,0,0-.3-1,1.19,1.19,0,0,0-.9-.5,1.09,1.09,0,0,0-.9.4A2.82,2.82,0,0,0,119.3,155.9Z"/><path class="cls-9" d="M125.7,158.9l-1.7-5.1h.8l1,3c.1.3.2.7.3,1,.1-.3.2-.6.3-1l1-3.1h.8l-1.7,5.1h-.8Z"/><path class="cls-9" d="M132.8,157.3l.8.1a2.4,2.4,0,0,1-.7,1.2,1.84,1.84,0,0,1-1.3.4,1.86,1.86,0,0,1-1.6-.7,2.88,2.88,0,0,1-.6-1.9,3,3,0,0,1,.6-2,2,2,0,0,1,3,0,3,3,0,0,1,.6,2v.2h-3.4a2.23,2.23,0,0,0,.4,1.3,1.22,1.22,0,0,0,.9.4,1.45,1.45,0,0,0,.7-.2A1.56,1.56,0,0,0,132.8,157.3Zm-2.5-1.4h2.5a1.69,1.69,0,0,0-.3-1,1.19,1.19,0,0,0-.9-.5,1.09,1.09,0,0,0-.9.4A1.37,1.37,0,0,0,130.3,155.9Z"/><path class="cls-9" d="M135.4,158.9v-7h.8v7Z"/><path class="cls-9" d="M138,156.4a2.82,2.82,0,0,1,.7-2.1,2,2,0,0,1,1.4-.6,1.8,1.8,0,0,1,1.5.7,2.88,2.88,0,0,1,.6,1.9,2.81,2.81,0,0,1-.3,1.5,1.76,1.76,0,0,1-.8.9,2.28,2.28,0,0,1-1.1.3,1.8,1.8,0,0,1-1.5-.7A2.85,2.85,0,0,1,138,156.4Zm.8,0a2.24,2.24,0,0,0,.4,1.5,1.39,1.39,0,0,0,1,.5,1.05,1.05,0,0,0,.9-.5,2.08,2.08,0,0,0,.4-1.5,2,2,0,0,0-.4-1.4,1.15,1.15,0,0,0-1.9,0C138.9,155.2,138.8,155.7,138.8,156.4Z"/><path class="cls-9" d="M144,160.8v-7h.7v.7a1.7,1.7,0,0,1,.6-.6,1.88,1.88,0,0,1,.8-.2,1.69,1.69,0,0,1,1,.3,2.18,2.18,0,0,1,.7.9,3,3,0,0,1,.2,1.3,5.9,5.9,0,0,1-.2,1.4,2.29,2.29,0,0,1-.7,1,1.21,1.21,0,0,1-1,.3,1.45,1.45,0,0,1-.7-.2,1.21,1.21,0,0,1-.5-.5v2.5H144Zm.7-4.4a1.81,1.81,0,0,0,.4,1.4c.3.3.5.5.9.5a1.38,1.38,0,0,0,.9-.5,2.7,2.7,0,0,0,.4-1.5,2.41,2.41,0,0,0-.4-1.5c-.3-.4-.5-.5-.8-.5a1.38,1.38,0,0,0-.9.5A2.35,2.35,0,0,0,144.7,156.4Z"/><path class="cls-9" d="M152.8,157.3l.8.1a2.4,2.4,0,0,1-.7,1.2,1.84,1.84,0,0,1-1.3.4,1.86,1.86,0,0,1-1.6-.7,2.88,2.88,0,0,1-.6-1.9,3,3,0,0,1,.6-2,2,2,0,0,1,3,0,3,3,0,0,1,.6,2v.2h-3.4a2.23,2.23,0,0,0,.4,1.3,1.22,1.22,0,0,0,.9.4,1.45,1.45,0,0,0,.7-.2A1.56,1.56,0,0,0,152.8,157.3Zm-2.5-1.4h2.5a1.69,1.69,0,0,0-.3-1,1.19,1.19,0,0,0-.9-.5,1.09,1.09,0,0,0-.9.4A1.37,1.37,0,0,0,150.3,155.9Z"/><path class="cls-9" d="M155.4,158.9v-5.1h.7v.8c.2-.4.3-.6.5-.7a.76.76,0,0,1,.5-.2,1.33,1.33,0,0,1,.8.3l-.3.8a1.42,1.42,0,0,0-.6-.2c-.2,0-.3.1-.5.2a2.19,2.19,0,0,0-.3.5,3.08,3.08,0,0,0-.1,1V159h-.7Z"/></g></g></svg>